<svg xmlns="http://www.w3.org/2000/svg" width="226" height="270" viewBox="-113 -237 226 270">
<path d="M98.5 -72L98.5 -72C98.5 -21.65 54.01 18.5 0 18.5L0 14L0 18.5C-54.01 18.5 -98.5 -21.65 -98.5 -72L-94 -72L-98.5 -72C-98.5 -122.35 -54.01 -162.5 0 -162.5L0 -158L0 -162.5C54.01 -162.5 98.5 -122.35 98.5 -72L94 -72L98.5 -72M89.5 -72L89.5 -72C89.5 -116.64 49.81 -153.5 0 -153.5L0 -153.5C-49.81 -153.5 -89.5 -116.64 -89.5 -72L-89.5 -72C-89.5 -27.36 -49.81 9.5 0 9.5L0 9.5C49.81 9.5 89.5 -27.36 89.5 -72Z" fill="#2A1F2E"/>
<path d="M94 -72C94 -24.5 51.91 14 0 14C-51.91 14 -94 -24.5 -94 -72C-94 -119.5 -51.91 -158 0 -158C51.91 -158 94 -119.5 94 -72Z" fill="#FFFFFF"/>
<path d="M46.5 -176L46.5 -176C46.5 -150.32 25.68 -129.5 0 -129.5L0 -134L0 -129.5C-25.68 -129.5 -46.5 -150.32 -46.5 -176L-42 -176L-46.5 -176C-46.5 -201.68 -25.68 -222.5 0 -222.5L0 -218L0 -222.5C25.68 -222.5 46.5 -201.68 46.5 -176L42 -176L46.5 -176M37.5 -176L37.5 -176C37.5 -196.71 20.71 -213.5 0 -213.5L0 -213.5C-20.71 -213.5 -37.5 -196.71 -37.5 -176L-37.5 -176C-37.5 -155.29 -20.71 -138.5 0 -138.5L0 -138.5C20.71 -138.5 37.5 -155.29 37.5 -176Z" fill="#2A1F2E"/>
<path d="M42 -176C42 -152.8 23.2 -134 0 -134C-23.2 -134 -42 -152.8 -42 -176C-42 -199.2 -23.2 -218 0 -218C23.2 -218 42 -199.2 42 -176Z" fill="#FFFFFF"/>
<path d="M-30 -139L-30 -139C-30 -135.13 -26.87 -132 -23 -132L23 -132C26.87 -132 30 -135.13 30 -139L30 -139C30 -142.87 26.87 -146 23 -146L-23 -146C-26.87 -146 -30 -142.87 -30 -139Z" fill="#FF8FD0"/>
</svg>
