<svg xmlns="http://www.w3.org/2000/svg" width="238" height="258" viewBox="-119 -141 238 258">
<path d="M-44 -122L44 -122C74.93 -122 100 -96.93 100 -66L100 42C100 72.93 74.93 98 44 98L-44 98C-74.93 98 -100 72.93 -100 42L-100 -66C-100 -96.93 -74.93 -122 -44 -122Z" fill="none" stroke="#2A1F2E" stroke-width="9" stroke-linecap="round" stroke-linejoin="round"/>
<path d="M-44 -122L44 -122C74.93 -122 100 -96.93 100 -66L100 42C100 72.93 74.93 98 44 98L-44 98C-74.93 98 -100 72.93 -100 42L-100 -66C-100 -96.93 -74.93 -122 -44 -122Z" fill="#FFFFFF"/>
</svg>
