<svg xmlns="http://www.w3.org/2000/svg" width="88" height="80" viewBox="-44 -40 88 80">
<path d="M-30 -6L-30 16C-30 21.52 -25.52 26 -20 26L20 26C25.52 26 30 21.52 30 16L30 -6C30 -11.52 25.52 -16 20 -16L-20 -16C-25.52 -16 -30 -11.52 -30 -6Z" fill="#FFFFFF"/>
<path d="M-12 -21L-12 -17C-12 -14.24 -9.76 -12 -7 -12L7 -12C9.76 -12 12 -14.24 12 -17L12 -21C12 -23.76 9.76 -26 7 -26L-7 -26C-9.76 -26 -12 -23.76 -12 -21Z" fill="#FFFFFF"/>
<path d="M13 5C13 12.18 7.18 18 0 18C-7.18 18 -13 12.18 -13 5C-13 -2.18 -7.18 -8 0 -8C7.18 -8 13 -2.18 13 5Z" fill="#000000" fill-opacity="0.4"/>
<path d="M8 5C8 9.42 4.42 13 0 13C-4.42 13 -8 9.42 -8 5C-8 0.58 -4.42 -3 0 -3C4.42 -3 8 0.58 8 5Z" fill="#FFFFFF"/>
</svg>
