<svg xmlns="http://www.w3.org/2000/svg" width="72" height="76" viewBox="-36 44 72 76">
<path d="M-4 72C-4 77.52 -7.58 82 -12 82C-16.42 82 -20 77.52 -20 72C-20 66.48 -16.42 62 -12 62C-7.58 62 -4 66.48 -4 72Z" fill="#FFFFFF"/>
<path d="M17 82C17 92.49 9.39 101 0 101C-9.39 101 -17 92.49 -17 82C-17 71.51 -9.39 63 0 63C9.39 63 17 71.51 17 82Z" fill="none" stroke="#2A1F2E" stroke-width="9" stroke-linecap="round" stroke-linejoin="round"/>
<path d="M17 82C17 92.49 9.39 101 0 101C-9.39 101 -17 92.49 -17 82C-17 71.51 -9.39 63 0 63C9.39 63 17 71.51 17 82Z" fill="#FFFFFF"/>
</svg>
