<svg xmlns="http://www.w3.org/2000/svg" width="162" height="138" viewBox="-81 -121 162 138">
<path d="M67 -52L67 -52C67 -20.67 35.95 3 0 3L0 -2L0 3C-35.95 3 -67 -20.67 -67 -52L-62 -52L-67 -52C-67 -83.33 -35.95 -107 0 -107L0 -102L0 -107C35.95 -107 67 -83.33 67 -52L62 -52L67 -52M57 -52L57 -52C57 -75.9 32.54 -97 0 -97L0 -97C-32.54 -97 -57 -75.9 -57 -52C-57 -52 -57 -52 -57 -52L-57 -52C-57 -28.1 -32.54 -7 0 -7L0 -7C32.54 -7 57 -28.1 57 -52Z" fill="#2A1F2E"/>
<path d="M62 -52C62 -24.39 34.24 -2 0 -2C-34.24 -2 -62 -24.39 -62 -52C-62 -79.61 -34.24 -102 0 -102C34.24 -102 62 -79.61 62 -52Z" fill="#FFC866"/>
<path d="M57 -52L57 -52C57 -25.1 30.43 -5 0 -5L0 -10L0 -5C-30.43 -5 -57 -25.1 -57 -52L-52 -52L-57 -52C-57 -78.9 -30.43 -99 0 -99L0 -94L0 -99C30.43 -99 57 -78.9 57 -52L52 -52L57 -52M47 -52L47 -52C47 -71.49 27.01 -89 0 -89C0 -89 0 -89 0 -89L0 -89C-27.01 -89 -47 -71.49 -47 -52L-47 -52C-47 -32.51 -27.01 -15 0 -15L0 -15C27.01 -15 47 -32.51 47 -52Z" fill="#2A1F2E"/>
<path d="M52 -52C52 -28.8 28.72 -10 0 -10C-28.72 -10 -52 -28.8 -52 -52C-52 -75.2 -28.72 -94 0 -94C28.72 -94 52 -75.2 52 -52Z" fill="#FF9B54"/>
<path d="M51 -52L51 -52C51 -28.28 26.96 -11 0 -11L0 -16L0 -11C-26.96 -11 -51 -28.28 -51 -52L-46 -52L-51 -52C-51 -75.72 -26.96 -93 0 -93L0 -88L0 -93C26.96 -93 51 -75.72 51 -52L46 -52L51 -52M41 -52L41 -52C41 -68.05 23.85 -83 0 -83L0 -83C-23.85 -83 -41 -68.05 -41 -52L-41 -52C-41 -35.95 -23.85 -21 0 -21L0 -21C23.85 -21 41 -35.95 41 -52Z" fill="#2A1F2E"/>
<path d="M46 -52C46 -32.12 25.41 -16 0 -16C-25.41 -16 -46 -32.12 -46 -52C-46 -71.88 -25.41 -88 0 -88C25.41 -88 46 -71.88 46 -52Z" fill="#FFD27A"/>
<path d="M-11 -62C-11 -57.03 -15.03 -53 -20 -53C-24.97 -53 -29 -57.03 -29 -62C-29 -66.97 -24.97 -71 -20 -71C-15.03 -71 -11 -66.97 -11 -62Z" fill="#E8454F"/>
<path d="M27 -66C27 -61.03 22.97 -57 18 -57C13.03 -57 9 -61.03 9 -66C9 -70.97 13.03 -75 18 -75C22.97 -75 27 -70.97 27 -66Z" fill="#E8454F"/>
<path d="M13 -42C13 -37.03 8.97 -33 4 -33C-0.97 -33 -5 -37.03 -5 -42C-5 -46.97 -0.97 -51 4 -51C8.97 -51 13 -46.97 13 -42Z" fill="#E8454F"/>
<path d="M-19 -42C-19 -38.13 -22.13 -35 -26 -35C-29.87 -35 -33 -38.13 -33 -42C-33 -45.87 -29.87 -49 -26 -49C-22.13 -49 -19 -45.87 -19 -42Z" fill="#58B368"/>
<path d="M-2.11 -56.53L-2.11 -56.53L57.89 -84.53C59.43 -85.25 61.24 -85.14 62.69 -84.22C64.13 -83.3 65 -81.71 65 -80L65 -80L65 -24C65 -22.29 64.13 -20.7 62.69 -19.78C61.24 -18.86 59.43 -18.75 57.89 -19.47L57.89 -19.47L-2.11 -47.47C-3.87 -48.29 -5 -50.06 -5 -52C-5 -53.94 -3.87 -55.71 -2.11 -56.53L-2.11 -56.53M2.11 -47.47L0 -52L2.11 -56.53L62.11 -28.53L60 -24L55 -24L55 -80L60 -80L62.11 -75.47L2.11 -47.47Z" fill="#2A1F2E"/>
<path d="M0 -52L60 -80L60 -24Z" fill="#FFEAB3"/>
</svg>
